<?xml version="1.0" encoding="UTF-8" standalone="no"?><!DOCTYPE svg PUBLIC "-//W3C//DTD SVG 1.1//EN" "http://www.w3.org/Graphics/SVG/1.1/DTD/svg11.dtd"><svg width="100%" height="100%" viewBox="0 0 4500 2621" version="1.1" xmlns="http://www.w3.org/2000/svg" xmlns:xlink="http://www.w3.org/1999/xlink" xml:space="preserve" xmlns:serif="http://www.serif.com/" style="fill-rule:evenodd;clip-rule:evenodd;stroke-linejoin:round;stroke-miterlimit:2;"><g><g><g><path d="M1722.79,811.206c-0,-0 193.714,209.305 486.762,106.005l29.517,-10.404l-19.786,-17.814c-254.11,89.575 -452.025,-123.622 -452.025,-123.622l-21.79,-23.385l-44.468,45.835l21.79,23.385Z" style="fill:#cf913f;"/><path d="M2718.12,811.206c0,-0 -193.714,209.305 -486.762,106.005l-29.517,-10.404l19.786,-17.814c254.11,89.575 452.025,-123.622 452.025,-123.622l21.79,-23.385l44.468,45.835l-21.79,23.385Z" style="fill:#cf913f;"/><path d="M1762.25,991.437c0,0 137.437,253.82 445.767,231.36l31.056,-2.262l-14.89,-22.475c-267.362,19.476 -407.934,-239.221 -407.934,-239.221l-15.497,-28.397l-53.999,32.598l15.497,28.397Z" style="fill:#cf913f;"/><path d="M2678.67,991.437c-0,0 -137.437,253.82 -445.767,231.36l-31.056,-2.262l14.89,-22.475c267.362,19.476 407.934,-239.221 407.934,-239.221l15.497,-28.397l53.999,32.598l-15.497,28.397Z" style="fill:#cf913f;"/><path d="M1347.44,617.208c19.19,90.478 102.174,359.742 409.641,333.713c-52.993,-319.302 -321.974,-336.655 -409.641,-333.713m368.498,389.816c-369.128,-0 -424.182,-406.875 -424.707,-411.25l-3.39,-27.096l25.797,-3.345c4.369,-0.625 443.198,-52.206 498.567,406.25l3.251,26.911l-25.622,3.42c-25.902,3.455 -50.581,5.11 -73.896,5.11" style="fill:#cf913f;fill-rule:nonzero;"/><path d="M1364.72,405.884c14.297,323.787 278.629,376.728 366.402,385.368c-8.215,-92.316 -58.55,-370.331 -366.402,-385.368m419.674,441.397l-25.972,-0.073c-4.474,-0.037 -445.925,-7.022 -445.925,-469.081l0,-27.169l25.832,-0c439.318,-0 445.96,464.301 445.995,469.007l0.07,27.316Z" style="fill:#cf913f;fill-rule:nonzero;"/><path d="M2219.36,77.678c-203.491,234.871 -62.071,464.395 -3.427,540.591c1.177,1.529 2.32,2.997 3.427,4.401c1.107,-1.404 2.25,-2.872 3.427,-4.401c58.644,-76.196 200.064,-305.72 -3.427,-540.591m-0,624.23l-18.315,-19.368c-3.139,-3.353 -310.596,-336.603 0.049,-663.329l18.266,-19.211l18.266,19.211c310.645,326.726 3.188,659.976 0.049,663.329l-18.315,19.368Z" style="fill:#cf913f;fill-rule:nonzero;"/><path d="M2669.79,950.928c307.467,26.03 390.416,-243.235 409.641,-333.713c-87.667,-2.941 -356.648,14.375 -409.641,333.713m-32.753,50.993l-25.622,-3.456l3.251,-26.875c55.369,-458.456 494.198,-406.875 498.567,-406.25l25.762,3.346l-3.355,27.095c-0.525,4.338 -55.614,411.213 -424.707,411.213c-23.35,0 -47.994,-1.617 -73.896,-5.073" style="fill:#cf913f;fill-rule:nonzero;"/><path d="M2695.75,791.248c87.772,-8.64 352.104,-61.581 366.401,-385.368c-307.851,15.037 -358.187,293.052 -366.401,385.368m-53.202,28.713c0.035,-4.706 6.641,-469.007 445.994,-469.007l25.832,-0l0,27.169c0,462.059 -441.45,469.044 -445.924,469.081l-25.972,0.074l0.07,-27.317Z" style="fill:#cf913f;fill-rule:nonzero;"/><path d="M2193.17,642.651c0,0 2.322,90.874 3.927,213.382c0.854,65.167 1.945,139.271 1.665,213.382c-0.221,58.37 -1.427,116.714 -2.625,170.705c-3.183,143.516 -7.424,256.059 -7.424,256.059l61.286,-0c0,-0 -4.241,-112.543 -7.424,-256.059c-1.198,-53.991 -2.404,-112.335 -2.625,-170.705c-0.28,-74.111 0.811,-148.215 1.665,-213.382c1.605,-122.508 3.927,-213.382 3.927,-213.382l-52.372,0Z" style="fill:#cf913f;"/><path d="M2245.91,28.307c-5.652,-0.566 -12.666,0.805 -20.24,5.496c-9.886,6.124 -22.547,19.465 -34.559,38.986c-35.871,58.297 -69.299,174.172 -13.847,286.889c46.954,95.441 43.448,217.34 25.139,269.915l33.898,13.058c20.371,-58.498 25.268,-194.229 -26.975,-300.421c-48.094,-97.759 -19.019,-198.252 12.092,-248.813c8.794,-14.292 23.619,-27.467 23.619,-27.467c0,-0 -1.805,0.229 -2.549,0.154l3.422,-37.797Z" style="fill:#cf913f;"/></g><g><g transform="matrix(0.950784,0,0,1,-27995.4,0)"><text x="29413.5px" y="2369.01px" style="font-family:'Gayathri-Regular', 'Gayathri';font-size:1273.55px;fill:#50572f;">cinco</text></g><g transform="matrix(0.950784,0,0,1,-27840.7,0)"><text x="32556.6px" y="2369.01px" style="font-family:'Gayathri-Regular', 'Gayathri';font-size:1273.55px;fill:#50572f;">psi</text></g><path d="M2938.68,2206.8l-6.054,-6.402c-1.038,-1.109 -102.678,-111.275 0.016,-219.284l6.038,-6.351l6.039,6.351c102.693,108.009 1.054,218.175 0.016,219.284l-6.055,6.402Z" style="fill:#cf913f;fill-rule:nonzero;"/></g></g></g></svg>